<mxfile host="app.diagrams.net" agent="Mozilla/5.0 (Windows NT 10.0; Win64; x64) AppleWebKit/537.36 (KHTML, like Gecko) Chrome/136.0.0.0 Safari/537.36" version="26.2.14">
  <diagram name="Página-1" id="ernRAC5D8F3P8FDCeqiH">
    <mxGraphModel dx="1042" dy="527" grid="1" gridSize="10" guides="1" tooltips="1" connect="1" arrows="1" fold="1" page="1" pageScale="1" pageWidth="827" pageHeight="1169" math="0" shadow="0">
      <root>
        <mxCell id="0" />
        <mxCell id="1" parent="0" />
        <mxCell id="9W059uVGr_A8UaHw2HkI-4" style="edgeStyle=orthogonalEdgeStyle;rounded=0;orthogonalLoop=1;jettySize=auto;html=1;entryX=0;entryY=0.5;entryDx=0;entryDy=0;exitX=0.5;exitY=1;exitDx=0;exitDy=0;" edge="1" parent="1" source="9W059uVGr_A8UaHw2HkI-1" target="9W059uVGr_A8UaHw2HkI-2">
          <mxGeometry relative="1" as="geometry" />
        </mxCell>
        <mxCell id="9W059uVGr_A8UaHw2HkI-5" value="Informa S/N" style="edgeLabel;html=1;align=center;verticalAlign=middle;resizable=0;points=[];" vertex="1" connectable="0" parent="9W059uVGr_A8UaHw2HkI-4">
          <mxGeometry x="0.2635" y="2" relative="1" as="geometry">
            <mxPoint as="offset" />
          </mxGeometry>
        </mxCell>
        <mxCell id="9W059uVGr_A8UaHw2HkI-6" style="edgeStyle=orthogonalEdgeStyle;rounded=0;orthogonalLoop=1;jettySize=auto;html=1;entryX=0;entryY=0.5;entryDx=0;entryDy=0;" edge="1" parent="1" source="9W059uVGr_A8UaHw2HkI-1" target="9W059uVGr_A8UaHw2HkI-3">
          <mxGeometry relative="1" as="geometry">
            <Array as="points">
              <mxPoint x="90" y="210" />
            </Array>
          </mxGeometry>
        </mxCell>
        <mxCell id="9W059uVGr_A8UaHw2HkI-7" value="Vendedor/&lt;div&gt;Canal&lt;/div&gt;" style="edgeLabel;html=1;align=center;verticalAlign=middle;resizable=0;points=[];" vertex="1" connectable="0" parent="9W059uVGr_A8UaHw2HkI-6">
          <mxGeometry x="0.4867" y="1" relative="1" as="geometry">
            <mxPoint as="offset" />
          </mxGeometry>
        </mxCell>
        <mxCell id="9W059uVGr_A8UaHw2HkI-10" style="edgeStyle=orthogonalEdgeStyle;rounded=0;orthogonalLoop=1;jettySize=auto;html=1;entryX=0;entryY=0.5;entryDx=0;entryDy=0;" edge="1" parent="1" source="9W059uVGr_A8UaHw2HkI-1" target="9W059uVGr_A8UaHw2HkI-9">
          <mxGeometry relative="1" as="geometry">
            <Array as="points">
              <mxPoint x="90" y="280" />
            </Array>
          </mxGeometry>
        </mxCell>
        <mxCell id="9W059uVGr_A8UaHw2HkI-11" value="UF Loja /&lt;div&gt;UF Contrato&lt;/div&gt;" style="edgeLabel;html=1;align=center;verticalAlign=middle;resizable=0;points=[];" vertex="1" connectable="0" parent="9W059uVGr_A8UaHw2HkI-10">
          <mxGeometry x="0.551" y="-1" relative="1" as="geometry">
            <mxPoint as="offset" />
          </mxGeometry>
        </mxCell>
        <mxCell id="9W059uVGr_A8UaHw2HkI-13" style="edgeStyle=orthogonalEdgeStyle;rounded=0;orthogonalLoop=1;jettySize=auto;html=1;" edge="1" parent="1" source="9W059uVGr_A8UaHw2HkI-1" target="9W059uVGr_A8UaHw2HkI-12">
          <mxGeometry relative="1" as="geometry" />
        </mxCell>
        <mxCell id="9W059uVGr_A8UaHw2HkI-1" value="Início Jornada NETSales" style="rounded=1;whiteSpace=wrap;html=1;" vertex="1" parent="1">
          <mxGeometry x="30" y="30" width="120" height="60" as="geometry" />
        </mxCell>
        <mxCell id="9W059uVGr_A8UaHw2HkI-2" value="API SAP Consulta Serial" style="rounded=1;whiteSpace=wrap;html=1;" vertex="1" parent="1">
          <mxGeometry x="210" y="110" width="120" height="60" as="geometry" />
        </mxCell>
        <mxCell id="9W059uVGr_A8UaHw2HkI-3" value="API IW Consulta Endereço Loja" style="rounded=1;whiteSpace=wrap;html=1;" vertex="1" parent="1">
          <mxGeometry x="210" y="180" width="120" height="60" as="geometry" />
        </mxCell>
        <mxCell id="9W059uVGr_A8UaHw2HkI-9" value="API SAP Elegibilidade Fiscal" style="rounded=1;whiteSpace=wrap;html=1;" vertex="1" parent="1">
          <mxGeometry x="210" y="250" width="120" height="60" as="geometry" />
        </mxCell>
        <mxCell id="9W059uVGr_A8UaHw2HkI-12" value="Fim jornada (criação Solic/OS)" style="rounded=1;whiteSpace=wrap;html=1;" vertex="1" parent="1">
          <mxGeometry x="30" y="350" width="120" height="60" as="geometry" />
        </mxCell>
        <mxCell id="9W059uVGr_A8UaHw2HkI-21" style="edgeStyle=orthogonalEdgeStyle;rounded=0;orthogonalLoop=1;jettySize=auto;html=1;entryX=0;entryY=0.5;entryDx=0;entryDy=0;" edge="1" parent="1" source="9W059uVGr_A8UaHw2HkI-14" target="9W059uVGr_A8UaHw2HkI-20">
          <mxGeometry relative="1" as="geometry" />
        </mxCell>
        <mxCell id="9W059uVGr_A8UaHw2HkI-14" value="Contrato Conectado" style="rounded=1;whiteSpace=wrap;html=1;" vertex="1" parent="1">
          <mxGeometry x="400" y="350" width="120" height="60" as="geometry" />
        </mxCell>
        <mxCell id="9W059uVGr_A8UaHw2HkI-18" style="edgeStyle=orthogonalEdgeStyle;rounded=0;orthogonalLoop=1;jettySize=auto;html=1;entryX=0;entryY=0.5;entryDx=0;entryDy=0;" edge="1" parent="1" source="9W059uVGr_A8UaHw2HkI-16" target="9W059uVGr_A8UaHw2HkI-14">
          <mxGeometry relative="1" as="geometry" />
        </mxCell>
        <mxCell id="9W059uVGr_A8UaHw2HkI-19" value="Baixada" style="edgeLabel;html=1;align=center;verticalAlign=middle;resizable=0;points=[];" vertex="1" connectable="0" parent="9W059uVGr_A8UaHw2HkI-18">
          <mxGeometry x="-0.1289" y="2" relative="1" as="geometry">
            <mxPoint as="offset" />
          </mxGeometry>
        </mxCell>
        <mxCell id="9W059uVGr_A8UaHw2HkI-16" value="Status OS" style="rhombus;whiteSpace=wrap;html=1;rounded=1;" vertex="1" parent="1">
          <mxGeometry x="220" y="340" width="80" height="80" as="geometry" />
        </mxCell>
        <mxCell id="9W059uVGr_A8UaHw2HkI-20" value="SAP Solicita NF (OV SAP)" style="rounded=1;whiteSpace=wrap;html=1;" vertex="1" parent="1">
          <mxGeometry x="580" y="350" width="120" height="60" as="geometry" />
        </mxCell>
        <mxCell id="9W059uVGr_A8UaHw2HkI-22" style="edgeStyle=orthogonalEdgeStyle;rounded=0;orthogonalLoop=1;jettySize=auto;html=1;entryX=0;entryY=0.5;entryDx=0;entryDy=0;exitX=0.5;exitY=1;exitDx=0;exitDy=0;" edge="1" parent="1" source="9W059uVGr_A8UaHw2HkI-16" target="9W059uVGr_A8UaHw2HkI-16">
          <mxGeometry relative="1" as="geometry">
            <Array as="points">
              <mxPoint x="260" y="440" />
              <mxPoint x="180" y="440" />
              <mxPoint x="180" y="380" />
            </Array>
          </mxGeometry>
        </mxCell>
        <mxCell id="9W059uVGr_A8UaHw2HkI-23" value="Aberta" style="edgeLabel;html=1;align=center;verticalAlign=middle;resizable=0;points=[];" vertex="1" connectable="0" parent="9W059uVGr_A8UaHw2HkI-22">
          <mxGeometry x="-0.324" y="1" relative="1" as="geometry">
            <mxPoint x="8" as="offset" />
          </mxGeometry>
        </mxCell>
      </root>
    </mxGraphModel>
  </diagram>
</mxfile>
